<svg xmlns="http://www.w3.org/2000/svg" height="48" width="48"><path d="M12.511 16.79l9.695-11.106M15.657 17.42l7.35-8.419m-4.127 8.815l4.373-5.01" stroke="#e6e6e6"/><path d="M12 5l-2-2m4.414 1.328V1.5m-3.083 5.914H8.503" stroke-linecap="round" stroke-miterlimit="1" stroke="#e6e6e6"/><path d="M24 44q-5.9 0-9.95-4.05Q10 35.9 10 30V17q0-5.9 4.05-9.95Q18.1 3 24 3q5.9 0 9.95 4.05Q38 11.1 38 17v13q0 5.9-4.05 9.95Q29.9 44 24 44zm1.5-27H35q0-4.05-2.65-7.2-2.65-3.15-6.85-3.7zM13 17h9.5V6.1q-4.2.55-6.85 3.7Q13 12.95 13 17zm11 24q4.55 0 7.775-3.225Q35 34.55 35 30V20H13v10q0 4.55 3.225 7.775Q19.45 41 24 41zm0-21q0 0 0 0 0 0 0 0zm1.5-3q0 0 0 0 0 0 0 0zm-3 0q0 0 0 0 0 0 0 0zm1.5 3q0 0 0 0 0 0 0 0 0 0 0 0 0 0 0 0z" fill="#e6e6e6"/></svg>
